<svg width="25" height="25" viewBox="0 0 25 25" fill="none" xmlns="http://www.w3.org/2000/svg">
<path d="M22.1188 19.0625H3.75625C3.29058 19.0617 2.84424 18.8763 2.51503 18.5469C2.18583 18.2176 2.00062 17.7711 2 17.3055V6.75781C2.00041 6.29201 2.18553 5.84538 2.51476 5.51586C2.84398 5.18634 3.29045 5.00083 3.75625 5H22.1188C22.5844 5.00083 23.0308 5.18623 23.36 5.51558C23.6892 5.84493 23.8744 6.29136 23.875 6.75703V17.3047C23.8755 17.5355 23.8304 17.7642 23.7424 17.9776C23.6543 18.191 23.525 18.3849 23.3618 18.5482C23.1987 18.7116 23.0049 18.841 22.7916 18.9293C22.5782 19.0175 22.3496 19.0628 22.1188 19.0625Z" fill="#33A6FF"/>
<path d="M18.7078 14.375H4.82344C4.69614 14.3744 4.57425 14.3234 4.48438 14.2333C4.39451 14.1431 4.34395 14.0211 4.34375 13.8938V11.7312C4.34375 11.4711 4.55625 11.25 4.82344 11.25H18.7078C18.9672 11.25 19.1875 11.4633 19.1875 11.7312V13.9016C19.1872 13.9642 19.1745 14.0261 19.1502 14.0838C19.1259 14.1415 19.0905 14.1939 19.0459 14.2379C19.0014 14.2818 18.9486 14.3166 18.8905 14.3401C18.8325 14.3637 18.7704 14.3755 18.7078 14.375Z" fill="#F4F4F4"/>
<path d="M20.2445 17.5H21.6461C21.7338 17.5005 21.8206 17.4836 21.9017 17.4503C21.9828 17.417 22.0565 17.368 22.1185 17.306C22.1805 17.244 22.2295 17.1703 22.2628 17.0892C22.2961 17.0082 22.313 16.9213 22.3125 16.8336V15.432C22.313 15.3444 22.2961 15.2575 22.2628 15.1764C22.2295 15.0953 22.1805 15.0217 22.1185 14.9597C22.0565 14.8977 21.9828 14.8486 21.9017 14.8153C21.8206 14.782 21.7338 14.7651 21.6461 14.7656H20.2445C20.1569 14.7651 20.07 14.782 19.9889 14.8153C19.9078 14.8486 19.8341 14.8977 19.7722 14.9597C19.7102 15.0217 19.6611 15.0953 19.6278 15.1764C19.5945 15.2575 19.5776 15.3444 19.5781 15.432V16.8336C19.5796 17.0099 19.6502 17.1786 19.7749 17.3032C19.8996 17.4279 20.0682 17.4986 20.2445 17.5Z" fill="#FFF478"/>
<path d="M23.875 7.34375H2V9.6875H23.875V7.34375Z" fill="#321B41"/>
<path d="M5.125 12.8125C5.125 12.7089 5.16616 12.6095 5.23941 12.5363C5.31267 12.463 5.41202 12.4219 5.51562 12.4219H14.1094C14.213 12.4219 14.3123 12.463 14.3856 12.5363C14.4588 12.6095 14.5 12.7089 14.5 12.8125C14.5 12.9161 14.4588 13.0155 14.3856 13.0887C14.3123 13.162 14.213 13.2031 14.1094 13.2031H5.51562C5.41202 13.2031 5.31267 13.162 5.23941 13.0887C5.16616 13.0155 5.125 12.9161 5.125 12.8125Z" fill="#9B9B9B"/>
</svg>
