<svg width="25" height="19" viewBox="0 0 25 19" fill="none" xmlns="http://www.w3.org/2000/svg">
<path d="M0.521484 8.45825H3.64648V17.3124H0.521484V8.45825Z" fill="#6FABE6"/>
<path d="M3.64583 8.45825C3.64583 16.6614 3.59375 16.2708 3.64583 16.2708C3.0933 16.2708 2.56339 16.0513 2.17269 15.6606C1.78199 15.2699 1.5625 14.74 1.5625 14.1874V8.45825H3.64583Z" fill="#82BCF4"/>
<path d="M24.4798 12.6251C24.4799 12.9125 24.4007 13.1944 24.2509 13.4398C24.1012 13.6852 23.8866 13.8844 23.6309 14.0157C14.4486 18.7084 14.6413 18.8751 12.5892 18.8751C11.0996 18.8751 10.5059 18.4428 6.33919 16.5522C5.57357 16.198 5.04232 16.2709 3.64648 16.2709V9.50007C8.61003 8.88028 7.02669 8.63028 14.7298 12.2501C14.9751 12.366 15.186 12.5439 15.3417 12.7661C15.4973 12.9883 15.5925 13.2472 15.6177 13.5174C15.6429 13.7875 15.5974 14.0596 15.4855 14.3068C15.3737 14.554 15.1994 14.7678 14.9798 14.9272L22.2038 11.2344C22.442 11.1122 22.7077 11.0531 22.9753 11.0631C23.2429 11.073 23.5034 11.1516 23.732 11.2912C23.9605 11.4308 24.1493 11.6268 24.2802 11.8604C24.4112 12.094 24.4799 12.3573 24.4798 12.6251Z" fill="#F6CCAF"/>
<path d="M24.3854 12.1041C24.1094 12.9114 24.2188 12.6718 15.2448 17.2604C14.4239 17.6781 13.5086 17.8756 12.5885 17.8333C11.099 17.8333 10.5052 17.401 6.33854 15.5104C5.98353 15.3444 5.59971 15.2489 5.20833 15.2291C5.0702 15.2291 4.93772 15.1742 4.84005 15.0766C4.74237 14.9789 4.6875 14.8464 4.6875 14.7083V9.36972C8.42188 8.90618 7.36458 8.7916 14.7292 12.2499C14.9344 12.3474 15.1158 12.4885 15.2609 12.6634C15.406 12.8382 15.5112 13.0425 15.5692 13.2622C15.6272 13.4818 15.6366 13.7115 15.5968 13.9352C15.557 14.1588 15.4688 14.3711 15.3385 14.5572C15.1042 14.927 14.6198 15.1145 15.4427 14.6874C22.6771 10.9947 22.2135 11.2135 22.3958 11.1562C22.7854 11.0192 23.2134 11.042 23.5862 11.2196C23.959 11.3973 24.2464 11.7152 24.3854 12.1041Z" fill="#FFDEC7"/>
<path d="M22.3958 0.125C22.3958 12.3281 22.4844 11.0938 22.2031 11.2344L14.9792 14.9271C15.1987 14.7677 15.373 14.5539 15.4849 14.3067C15.5967 14.0595 15.6423 13.7874 15.6171 13.5173C15.5918 13.2472 15.4967 12.9882 15.341 12.766C15.1853 12.5438 14.9745 12.366 14.7292 12.25C8.75 9.44271 8.73438 9.36458 7.8125 9.20833V0.125H22.3958Z" fill="#DF8761"/>
<path d="M22.3971 0.125V10.0781C21.9336 10.1615 21.9544 10.1927 16.569 12.9479C16.4668 12.5907 16.2894 12.2595 16.0487 11.9765C15.8079 11.6935 15.5094 11.4654 15.1732 11.3073C7.57943 7.73958 9.96484 8.84896 9.48047 8.63542C9.29495 8.55445 9.13704 8.42119 9.02605 8.25192C8.91505 8.08265 8.85578 7.88471 8.85547 7.68229V0.125H22.3971Z" fill="#F29B75"/>
<path d="M17.1882 0.125V3.25L15.1048 2.20833L13.0215 3.25V0.125H17.1882Z" fill="#FFCC66"/>
<path d="M17.1875 0.125V2.20833L15.1042 1.16667L14.0625 1.6875V0.125H17.1875Z" fill="#FFDE76"/>
<path d="M20.3132 10.0209H18.2298C18.0917 10.0209 17.9592 9.96604 17.8615 9.86837C17.7639 9.77069 17.709 9.63822 17.709 9.50008C17.709 9.36195 17.7639 9.22947 17.8615 9.1318C17.9592 9.03412 18.0917 8.97925 18.2298 8.97925H20.3132C20.4513 8.97925 20.5838 9.03412 20.6814 9.1318C20.7791 9.22947 20.834 9.36195 20.834 9.50008C20.834 9.63822 20.7791 9.77069 20.6814 9.86837C20.5838 9.96604 20.4513 10.0209 20.3132 10.0209Z" fill="#CC734C"/>
<path d="M13.1735 15.547L9.0641 13.6147C8.94962 13.5495 8.86407 13.4435 8.82466 13.3178C8.78524 13.1922 8.79489 13.0562 8.85167 12.9374C8.90844 12.8186 9.00812 12.7257 9.13064 12.6774C9.25317 12.6291 9.38943 12.629 9.51201 12.6772L13.6214 14.6095C14.5016 15.0209 14.8141 14.0313 15.3401 14.5574C15.1058 14.9272 14.6214 15.1147 15.4443 14.6876C15.8506 15.4792 14.1995 16.0417 13.1735 15.547Z" fill="#EDB996"/>
</svg>
