<svg width="25" height="25" viewBox="0 0 25 25" fill="none" xmlns="http://www.w3.org/2000/svg">
<g clip-path="url(#clip0_5348_20354)">
<path d="M21.8594 0H3.14062C1.40611 0 0 1.55157 0 3.46552V21.5345C0 23.4484 1.40611 25 3.14062 25H21.8594C23.5939 25 25 23.4484 25 21.5345V3.46552C25 1.55157 23.5939 0 21.8594 0Z" fill="#A50064"/>
<path d="M17.3717 5.0006C15.37 5.0006 13.7476 6.61679 13.7476 8.60848C13.7476 10.6002 15.3743 12.2164 17.3717 12.2164C19.3691 12.2164 21 10.6002 21 8.60848C21 6.61679 19.3775 5.0006 17.3717 5.0006ZM17.3717 10.1478C16.9709 10.1555 16.5836 9.99786 16.2949 9.70963C16.0062 9.42141 15.8396 9.02614 15.8318 8.61068C15.8525 8.20176 16.0238 7.81667 16.3103 7.53481C16.5968 7.25295 16.9767 7.09582 17.3717 7.09582C17.7666 7.09582 18.1466 7.25295 18.4331 7.53481C18.7196 7.81667 18.8908 8.20176 18.9115 8.61068C18.9037 9.02614 18.7372 9.42141 18.4485 9.70963C18.1597 9.99786 17.7724 10.1555 17.3717 10.1478ZM12.7118 7.71036V12.2317H10.6191V7.6884C10.6191 7.5195 10.5544 7.35753 10.4392 7.2381C10.324 7.11868 10.1678 7.05158 10.0049 7.05158C9.84195 7.05158 9.68571 7.11868 9.57052 7.2381C9.45532 7.35753 9.39061 7.5195 9.39061 7.6884V12.2317H7.30638V7.6884C7.30638 7.5195 7.24166 7.35753 7.12647 7.2381C7.01127 7.11868 6.85504 7.05158 6.69213 7.05158C6.52922 7.05158 6.37298 7.11868 6.25778 7.2381C6.14259 7.35753 6.07787 7.5195 6.07787 7.6884V12.2317H4V7.71036C4.01557 6.97726 4.31077 6.28044 4.82092 5.77254C5.33108 5.26464 6.0146 4.98706 6.72178 5.0006C7.30721 4.99936 7.87804 5.18996 8.35273 5.54519C8.82703 5.19081 9.39692 5.00027 9.98156 5.0006C10.69 4.98529 11.3754 5.26202 11.8873 5.77005C12.3992 6.27807 12.6957 6.9759 12.7118 7.71036ZM17.3717 13.7689C15.37 13.7689 13.7476 15.3829 13.7476 17.3767C13.7476 19.3706 15.3743 20.9912 17.3717 20.9912C19.3691 20.9912 20.9958 19.3772 20.9958 17.3855C20.9958 15.3938 19.3775 13.7689 17.3717 13.7689ZM17.3717 18.9161C17.0811 18.9045 16.8003 18.8045 16.5641 18.6287C16.3279 18.4529 16.1468 18.209 16.0433 17.9273C15.9398 17.6456 15.9185 17.3385 15.982 17.0444C16.0455 16.7502 16.191 16.4819 16.4005 16.2728C16.6099 16.0637 16.874 15.9231 17.16 15.8684C17.4459 15.8138 17.7411 15.8475 18.0087 15.9654C18.2763 16.0832 18.5046 16.2801 18.6651 16.5314C18.8256 16.7828 18.9113 17.0775 18.9115 17.3789C18.9088 17.5854 18.8667 17.7893 18.7878 17.9788C18.7088 18.1684 18.5945 18.3399 18.4514 18.4836C18.3083 18.6272 18.1393 18.7401 17.954 18.8159C17.7687 18.8916 17.5708 18.9286 17.3717 18.9249V18.9161ZM12.7118 16.4874V21H10.6191V16.4633C10.6191 16.2944 10.5544 16.1324 10.4392 16.013C10.324 15.8935 10.1678 15.8264 10.0049 15.8264C9.84195 15.8264 9.68571 15.8935 9.57052 16.013C9.45532 16.1324 9.39061 16.2944 9.39061 16.4633V21H7.30638V16.4633C7.30638 16.2944 7.24166 16.1324 7.12647 16.013C7.01127 15.8935 6.85504 15.8264 6.69213 15.8264C6.52922 15.8264 6.37298 15.8935 6.25778 16.013C6.14259 16.1324 6.07787 16.2944 6.07787 16.4633V21H4V16.4874C4.00634 16.1236 4.08179 15.7646 4.22204 15.431C4.36229 15.0974 4.56459 14.7957 4.81737 14.5433C5.07015 14.2908 5.36846 14.0924 5.69523 13.9596C6.022 13.8267 6.37083 13.7619 6.72178 13.7689C7.30684 13.7679 7.87739 13.9576 8.35273 14.3113C8.82708 13.9573 9.39709 13.7674 9.98156 13.7689C10.3331 13.761 10.6828 13.8251 11.0104 13.9576C11.338 14.09 11.6372 14.2882 11.8908 14.5408C12.1445 14.7933 12.3475 15.0952 12.4884 15.4293C12.6293 15.7633 12.7052 16.1229 12.7118 16.4874Z" fill="white"/>
</g>
<defs>
<clipPath id="clip0_5348_20354">
<rect width="25" height="25" fill="white"/>
</clipPath>
</defs>
</svg>
