<svg width="25" height="25" viewBox="0 0 25 25" fill="none" xmlns="http://www.w3.org/2000/svg">
<path d="M23.3756 13.3327L8.22685 21.6698C7.39636 22.1269 6.3526 21.8241 5.89554 20.9937L1.27917 12.6056C0.822109 11.7751 1.12483 10.7314 1.95532 10.2743L17.104 1.93719C17.9345 1.48013 18.9783 1.78285 19.4354 2.61334L24.0517 11.0014C24.5088 11.8319 24.2061 12.8756 23.3756 13.3327Z" fill="#FEBC1F"/>
<path d="M23.0447 12.7315L7.89598 21.0687C7.06549 21.5257 6.02173 21.223 5.56466 20.3925L0.948299 12.0045C0.491237 11.174 0.79396 10.1302 1.62445 9.67318L16.7732 1.33605C17.6037 0.878994 18.6474 1.18172 19.1045 2.01221L23.7209 10.4002C24.1779 11.2307 23.8752 12.2745 23.0447 12.7315Z" fill="#FFD475"/>
<path d="M16.7732 1.33603L1.62445 9.67317C0.793958 10.1302 0.491242 11.174 0.948294 12.0045L5.56467 20.3925C5.56467 20.3925 1.26313 12.1661 18.3047 1.27639C17.8297 1.06298 17.2645 1.06562 16.7732 1.33603Z" fill="#FEBC1F"/>
<path d="M2.30516 13.0331L2.88485 14.0864C3.03097 14.3519 3.36467 14.4487 3.63018 14.3026L19.611 5.50753C19.8765 5.3614 19.9733 5.02771 19.8272 4.7622L19.2475 3.70889C19.1013 3.44338 18.7677 3.3466 18.5021 3.49272L2.52133 12.2878C2.25582 12.4339 2.15904 12.7676 2.30516 13.0331Z" fill="#1D2943"/>
<path d="M2.14452 12.7412L2.72421 13.7945C2.87033 14.06 3.20402 14.1568 3.46953 14.0107L19.4503 5.21562C19.7159 5.0695 19.8126 4.73581 19.6665 4.4703L19.0868 3.41699C18.9407 3.15148 18.607 3.0547 18.3415 3.20082L2.36068 11.9959C2.09517 12.142 1.99839 12.4757 2.14452 12.7412Z" fill="#4C5C75"/>
<path d="M20.6365 23.8769L3.34515 23.8769C2.3972 23.8769 1.62873 23.1085 1.62873 22.1605L1.62872 12.5861C1.62872 11.6381 2.39719 10.8697 3.34515 10.8697L20.6365 10.8697C21.5845 10.8697 22.3529 11.6381 22.3529 12.5861L22.3529 22.1605C22.3529 23.1085 21.5845 23.8769 20.6365 23.8769Z" fill="#5094FF"/>
<path d="M3.34515 23.1908L20.6365 23.1908C21.5845 23.1908 22.3529 22.4223 22.3529 21.4744L22.3529 11.8999C22.3529 10.952 21.5845 10.1835 20.6365 10.1835L3.34515 10.1835C2.3972 10.1835 1.62873 10.952 1.62873 11.8999L1.62872 21.4743C1.62872 22.4223 2.39719 23.1908 3.34515 23.1908Z" fill="#57B3FE"/>
<path d="M3.34512 10.1835L20.6365 10.1835C21.5844 10.1835 22.3529 10.952 22.3529 11.8999V21.4744C22.3529 21.4744 22.155 12.1933 1.97461 10.8697C2.28782 10.4537 2.78429 10.1835 3.34512 10.1835Z" fill="#5094FF"/>
<path d="M21.008 20.1102V20.3765H21.0045C21.0114 20.7368 20.7109 21.0394 20.3486 21.0394L18.6071 21.0394C18.2513 21.0394 17.9443 20.7424 17.9513 20.3765H17.9478V20.1102H17.9903C18.0931 19.8514 18.3732 19.6741 18.6674 19.6741L20.2884 19.6741C20.5826 19.6741 20.8626 19.8514 20.9655 20.1102H21.008Z" fill="#E3E7F0"/>
<path d="M20.3468 20.775L18.6634 20.7751C18.3242 20.7751 18.0037 20.5448 17.956 20.2089C17.8981 19.8 18.2143 19.4491 18.6121 19.4491L20.289 19.4491C20.6486 19.4491 20.9836 19.7101 21.0055 20.0691C21.0298 20.4676 20.7147 20.775 20.3468 20.775Z" fill="white"/>
<path d="M16.0166 20.1102V20.3765H16.0131C16.02 20.7368 15.7195 21.0394 15.3572 21.0394L13.6157 21.0394C13.2599 21.0394 12.9529 20.7424 12.9599 20.3766H12.9564V20.1102H12.9989C13.1017 19.8514 13.3818 19.6741 13.676 19.6741L15.297 19.6741C15.5912 19.6741 15.8712 19.8514 15.9741 20.1102H16.0166Z" fill="#E3E7F0"/>
<path d="M15.3554 20.775L13.672 20.7751C13.3328 20.7751 13.0123 20.5448 12.9646 20.2089C12.9067 19.8 13.2229 19.4491 13.6207 19.4491L15.2976 19.4491C15.6573 19.4491 15.9922 19.7101 16.0141 20.0691C16.0384 20.4676 15.7233 20.775 15.3554 20.775Z" fill="white"/>
<path d="M11.0253 20.1102V20.3765H11.0217C11.0287 20.7368 10.7282 21.0394 10.3659 21.0394H8.62439C8.26856 21.0394 7.96153 20.7424 7.96858 20.3765H7.96503V20.1102H8.00756C8.11038 19.8514 8.39045 19.6741 8.68462 19.6741H10.3056C10.5998 19.6741 10.8799 19.8514 10.9827 20.1102H11.0253Z" fill="#E3E7F0"/>
<path d="M10.3641 20.775L8.68063 20.7751C8.34145 20.7751 8.02092 20.5448 7.97331 20.2089C7.91533 19.8 8.23161 19.4491 8.62939 19.4491L10.3062 19.4491C10.6659 19.4491 11.0009 19.7101 11.0228 20.0691C11.0471 20.4676 10.732 20.775 10.3641 20.775Z" fill="white"/>
<path d="M6.03388 20.1102V20.3765H6.03033C6.03727 20.7368 5.73677 21.0394 5.37452 21.0394L3.63299 21.0394C3.27717 21.0394 2.97014 20.7424 2.97718 20.3765H2.97363V20.1102H3.01617C3.11899 19.8514 3.39906 19.6741 3.69323 19.6741L5.31424 19.6741C5.60845 19.6741 5.88852 19.8514 5.99134 20.1102H6.03388Z" fill="#E3E7F0"/>
<path d="M5.3727 20.775L3.68924 20.7751C3.35006 20.7751 3.02953 20.5448 2.98192 20.2089C2.92394 19.8 3.24022 19.4491 3.638 19.4491L5.31484 19.4491C5.67453 19.4491 6.00949 19.7101 6.03139 20.0691C6.0557 20.4676 5.74059 20.775 5.3727 20.775Z" fill="white"/>
<path d="M2.97504 13.2079L2.97504 14.8096C2.97504 15.2133 3.30232 15.5406 3.70605 15.5406L6.70506 15.5406C7.10878 15.5406 7.43607 15.2133 7.43607 14.8096L7.43607 13.2079C7.43607 12.8042 7.10878 12.4769 6.70506 12.4769L3.70605 12.4769C3.30232 12.4769 2.97504 12.8042 2.97504 13.2079Z" fill="#FEBC1F"/>
<path d="M2.97504 12.9584L2.97504 14.56C2.97504 14.9637 3.30232 15.291 3.70605 15.291L6.70506 15.291C7.10878 15.291 7.43607 14.9637 7.43607 14.56V12.9584C7.43607 12.5546 7.10878 12.2274 6.70506 12.2274L3.70605 12.2274C3.30232 12.2274 2.97504 12.5546 2.97504 12.9584Z" fill="#FFD475"/>
<path d="M5.12786 13.5864V12.2274H4.78064V13.5864H2.97504V13.9336H3.96288V15.291H4.3101V13.9336H5.87352V15.291H6.22072V13.9336H7.43607V13.5864H5.12786Z" fill="#FEBC1F"/>
<path d="M20.6911 14.7854L18.7362 14.7855C18.5733 14.7855 18.4194 14.6749 18.3965 14.5136C18.3686 14.3172 18.5205 14.1487 18.7116 14.1487L20.6633 14.1487C20.836 14.1487 20.9969 14.274 21.0074 14.4464C21.0191 14.6378 20.8677 14.7854 20.6911 14.7854Z" fill="white"/>
<path d="M20.6911 13.4224L17.2589 13.4224C17.0961 13.4224 16.9421 13.3118 16.9193 13.1505C16.8914 12.9542 17.0433 12.7857 17.2343 12.7857L20.6633 12.7856C20.836 12.7856 20.9969 12.911 21.0074 13.0834C21.0191 13.2748 20.8677 13.4224 20.6911 13.4224Z" fill="white"/>
<path d="M20.1694 6.00012C20.9865 7.04867 21.6543 8.1882 22.1661 9.41525C21.3477 8.36753 20.6823 7.22652 20.1694 6.00012Z" fill="white"/>
<path d="M4.94275 9.4145C6.13352 8.50333 7.4159 7.741 8.78714 7.13419C7.59712 8.04657 6.31325 8.80641 4.94275 9.4145Z" fill="white"/>
<path d="M14.7764 22.329C16.2654 22.1529 17.7571 22.1514 19.246 22.329C17.7571 22.5066 16.2654 22.5052 14.7764 22.329Z" fill="white"/>
</svg>
