<svg width="25" height="25" viewBox="0 0 25 25" fill="none" xmlns="http://www.w3.org/2000/svg">
<g clip-path="url(#clip0_179_259)">
<path d="M12.22 13.2399C12.4616 13.4973 12.6482 13.8011 12.7686 14.1329C12.8889 14.4647 12.9404 14.8176 12.92 15.1699C12.9268 15.6655 12.8107 16.155 12.5821 16.5948C12.3535 17.0345 12.0195 17.4108 11.61 17.6899C10.9357 18.1696 10.1517 18.4722 9.33001 18.5699V19.7699C9.3274 19.869 9.28622 19.9631 9.21524 20.0322C9.14425 20.1013 9.04908 20.14 8.95001 20.1399H7.58001C7.48268 20.1374 7.39003 20.0976 7.32118 20.0288C7.25233 19.9599 7.21254 19.8673 7.21001 19.7699V18.5899C6.3765 18.5029 5.5802 18.1995 4.90001 17.7099C4.49814 17.4171 4.1654 17.0397 3.92523 16.6043C3.68507 16.1689 3.54333 15.6861 3.51001 15.1899H6.06001C6.08915 15.4203 6.16546 15.6422 6.28418 15.8418C6.4029 16.0414 6.56147 16.2144 6.75001 16.3499C7.21583 16.643 7.76031 16.7861 8.31001 16.7599C8.83108 16.787 9.34877 16.6619 9.80001 16.3999C9.97178 16.2974 10.1126 16.1503 10.2077 15.9743C10.3028 15.7983 10.3485 15.5998 10.34 15.3999C10.344 15.2554 10.3165 15.1117 10.2595 14.9787C10.2026 14.8458 10.1174 14.7268 10.01 14.6299C9.66719 14.391 9.27932 14.2242 8.87001 14.1399L6.87001 13.6699C4.87001 13.1899 3.80001 12.1499 3.80001 10.5399C3.7912 10.0699 3.89564 9.60461 4.1045 9.18341C4.31336 8.76221 4.62051 8.39745 5.00001 8.11994C5.64163 7.64389 6.39662 7.34396 7.19001 7.24994V6.05994C7.19254 5.96261 7.23233 5.86996 7.30118 5.80111C7.37003 5.73226 7.46268 5.69247 7.56001 5.68994H9.00001C9.09908 5.68991 9.19425 5.72857 9.26524 5.79768C9.33622 5.8668 9.3774 5.9609 9.38001 6.05994V7.26994C10.1316 7.37699 10.8438 7.67288 11.45 8.12994C11.8364 8.41875 12.1511 8.79271 12.3696 9.2228C12.5881 9.65289 12.7046 10.1276 12.71 10.6099H10.25C10.2394 10.3904 10.1801 10.176 10.0763 9.98228C9.97253 9.78855 9.8269 9.62036 9.65001 9.48994C9.22446 9.1985 8.71516 9.05449 8.20001 9.07994C7.7162 9.0598 7.2379 9.18898 6.83001 9.44994C6.6641 9.55727 6.52894 9.70587 6.43778 9.88118C6.34662 10.0565 6.30259 10.2525 6.31001 10.4499C6.31001 11.0599 6.84001 11.4499 7.89001 11.7499L9.89001 12.1799C10.7455 12.3251 11.5485 12.6904 12.22 13.2399Z" fill="#B7182E"/>
<path d="M22.83 12.27H17L18.63 9.86H17V9.93C16.8441 10.0057 16.7125 10.1235 16.62 10.27L14.76 13L16.59 15.69C16.6948 15.8298 16.8369 15.9372 17 16C17.0864 16.0552 17.1875 16.0831 17.29 16.08H18.68L17 13.66H22.81C23.0068 13.6627 23.1982 13.5954 23.35 13.47V12.47C23.2053 12.3447 23.0214 12.2739 22.83 12.27ZM23.38 9.86V5.72C23.3813 5.36412 23.3125 5.01146 23.1775 4.68216C23.0426 4.35287 22.844 4.05338 22.5933 3.80081C22.3426 3.54823 22.0446 3.34751 21.7163 3.21011C21.388 3.07271 21.0359 3.00131 20.68 3H4.32C3.60644 3.00261 2.92272 3.28655 2.41722 3.79017C1.91172 4.29379 1.62526 4.97646 1.62 5.69V20.11C1.62526 20.8235 1.91172 21.5062 2.41722 22.0098C2.92272 22.5135 3.60644 22.7974 4.32 22.8H20.68C21.3935 22.7974 22.0773 22.5135 22.5828 22.0098C23.0883 21.5062 23.3747 20.8235 23.38 20.11V16.11H22.75V19.68C22.7473 20.3546 22.4775 21.0006 21.9996 21.4767C21.5217 21.9527 20.8746 22.22 20.2 22.22H4.8C4.12542 22.22 3.47833 21.9527 3.0004 21.4767C2.52247 21.0006 2.25264 20.3546 2.25 19.68V6.14C2.25264 5.46543 2.52247 4.8194 3.0004 4.34334C3.47833 3.86728 4.12542 3.59999 4.8 3.6H20.2C20.8746 3.59999 21.5217 3.86728 21.9996 4.34334C22.4775 4.8194 22.7473 5.46543 22.75 6.14V9.86H23.38Z" fill="#B7182E"/>
<path d="M12.22 13.2399C12.4616 13.4973 12.6482 13.8011 12.7686 14.1329C12.8889 14.4647 12.9404 14.8176 12.92 15.1699C12.9268 15.6655 12.8107 16.155 12.5821 16.5948C12.3535 17.0345 12.0195 17.4108 11.61 17.6899C10.9357 18.1696 10.1517 18.4722 9.33001 18.5699V19.7699C9.3274 19.869 9.28622 19.9631 9.21524 20.0322C9.14425 20.1013 9.04908 20.14 8.95001 20.1399H7.58001C7.48268 20.1374 7.39003 20.0976 7.32118 20.0288C7.25233 19.9599 7.21254 19.8673 7.21001 19.7699V18.5899C6.3765 18.5029 5.5802 18.1995 4.90001 17.7099C4.49814 17.4171 4.1654 17.0397 3.92523 16.6043C3.68507 16.1689 3.54333 15.6861 3.51001 15.1899H6.06001C6.08915 15.4203 6.16546 15.6422 6.28418 15.8418C6.4029 16.0414 6.56147 16.2144 6.75001 16.3499C7.21583 16.643 7.76031 16.7861 8.31001 16.7599C8.83108 16.787 9.34877 16.6619 9.80001 16.3999C9.97178 16.2974 10.1126 16.1503 10.2077 15.9743C10.3028 15.7983 10.3485 15.5998 10.34 15.3999C10.344 15.2554 10.3165 15.1117 10.2595 14.9787C10.2026 14.8458 10.1174 14.7268 10.01 14.6299C9.66719 14.391 9.27932 14.2242 8.87001 14.1399L6.87001 13.6699C4.87001 13.1899 3.80001 12.1499 3.80001 10.5399C3.7912 10.0699 3.89564 9.60461 4.1045 9.18341C4.31336 8.76221 4.62051 8.39745 5.00001 8.11994C5.64163 7.64389 6.39662 7.34396 7.19001 7.24994V6.05994C7.19254 5.96261 7.23233 5.86996 7.30118 5.80111C7.37003 5.73226 7.46268 5.69247 7.56001 5.68994H9.00001C9.09908 5.68991 9.19425 5.72857 9.26524 5.79768C9.33622 5.8668 9.3774 5.9609 9.38001 6.05994V7.26994C10.1316 7.37699 10.8438 7.67288 11.45 8.12994C11.8364 8.41875 12.1511 8.79271 12.3696 9.2228C12.5881 9.65289 12.7046 10.1276 12.71 10.6099H10.25C10.2394 10.3904 10.1801 10.176 10.0763 9.98228C9.97253 9.78855 9.8269 9.62036 9.65001 9.48994C9.22446 9.1985 8.71516 9.05449 8.20001 9.07994C7.7162 9.0598 7.2379 9.18898 6.83001 9.44994C6.6641 9.55727 6.52894 9.70587 6.43778 9.88118C6.34662 10.0565 6.30259 10.2525 6.31001 10.4499C6.31001 11.0599 6.84001 11.4499 7.89001 11.7499L9.89001 12.1799C10.7455 12.3251 11.5485 12.6904 12.22 13.2399Z" fill="white"/>
<path d="M22.75 13.6601H17L18.63 16.0701H17.26C17.1686 16.0705 17.0788 16.0463 17 16.0001C16.8441 15.9244 16.7125 15.8066 16.62 15.6601L14.76 13.0001L16.59 10.3101C16.6845 10.1444 16.8276 10.0117 17 9.93011V9.86011H18.68L17 12.2701H22.73L22.75 13.6601Z" fill="white"/>
<path d="M12.22 13.24C11.5421 12.6785 10.728 12.306 9.86001 12.16L7.86001 11.73C6.86001 11.47 6.28001 11.04 6.28001 10.43C6.27259 10.2325 6.31662 10.0365 6.40778 9.86123C6.49894 9.68592 6.6341 9.53731 6.80001 9.42999C7.21869 9.17 7.70825 9.04761 8.20001 9.07999C8.71516 9.05453 9.22446 9.19854 9.65001 9.48999C9.8269 9.62041 9.97253 9.78859 10.0763 9.98232C10.1801 10.1761 10.2394 10.3905 10.25 10.61H12.66C12.6546 10.1276 12.5381 9.65294 12.3196 9.22285C12.1011 8.79275 11.7864 8.41879 11.4 8.12999C10.7938 7.67293 10.0816 7.37704 9.33001 7.26999C8.97332 7.20857 8.61194 7.17846 8.25001 7.17999C7.91542 7.17901 7.5812 7.2024 7.25001 7.24999C6.43574 7.33371 5.65879 7.63413 5.00001 8.11999C4.61076 8.39711 4.29519 8.76523 4.0808 9.19226C3.86641 9.61929 3.75972 10.0923 3.77001 10.57C3.77001 12.18 4.77001 13.22 6.84001 13.7L8.84001 14.17C9.24932 14.2543 9.63719 14.421 9.98001 14.66C10.0874 14.7568 10.1726 14.8758 10.2295 15.0088C10.2865 15.1417 10.314 15.2854 10.31 15.43C10.3185 15.6299 10.2728 15.8283 10.1777 16.0043C10.0826 16.1804 9.94178 16.3274 9.77001 16.43C9.31877 16.692 8.80108 16.817 8.28001 16.79C7.73031 16.8161 7.18583 16.673 6.72001 16.38C6.53147 16.2444 6.3729 16.0714 6.25418 15.8719C6.13546 15.6723 6.05915 15.4504 6.03001 15.22H3.51001C3.54759 15.7109 3.69134 16.1878 3.93134 16.6178C4.17133 17.0477 4.50184 17.4203 4.90001 17.71C5.5802 18.1995 6.3765 18.5029 7.21001 18.59C7.54176 18.6309 7.87575 18.6509 8.21001 18.65C8.58477 18.65 8.95906 18.6233 9.33001 18.57C10.1517 18.4722 10.9357 18.1697 11.61 17.69C12.0195 17.4108 12.3535 17.0346 12.5821 16.5948C12.8107 16.1551 12.9268 15.6656 12.92 15.17C12.9404 14.8176 12.8889 14.4648 12.7686 14.133C12.6482 13.8012 12.4616 13.4973 12.22 13.24Z" fill="#52AA52"/>
<path d="M9.32996 6.05994V8.05994C9.3305 8.15152 9.29705 8.24004 9.2361 8.30839C9.17514 8.37673 9.091 8.42004 8.99996 8.42994H7.57996C7.48183 8.42994 7.38772 8.39096 7.31833 8.32157C7.24894 8.25218 7.20996 8.15807 7.20996 8.05994V6.05994C7.21249 5.96261 7.25228 5.86996 7.32113 5.80111C7.38998 5.73226 7.48263 5.69247 7.57996 5.68994H8.99996C9.09015 5.7019 9.17306 5.74582 9.23361 5.81371C9.29417 5.88161 9.32836 5.96898 9.32996 6.05994Z" fill="#52AA52"/>
<path d="M9.32996 17.7699V19.7699C9.32735 19.8689 9.28617 19.963 9.21519 20.0322C9.1442 20.1013 9.04903 20.1399 8.94996 20.1399H7.57996C7.48263 20.1374 7.38998 20.0976 7.32113 20.0287C7.25228 19.9599 7.21249 19.8672 7.20996 19.7699V17.7699C7.21249 17.6726 7.25228 17.5799 7.32113 17.5111C7.38998 17.4422 7.48263 17.4024 7.57996 17.3999H8.99996C9.09015 17.4119 9.17306 17.4558 9.23361 17.5237C9.29417 17.5916 9.32836 17.6789 9.32996 17.7699Z" fill="#52AA52"/>
<path d="M23.3699 12.4501V13.4501C23.2182 13.5755 23.0268 13.6428 22.8299 13.6401H16.1199C16.0217 13.6519 15.922 13.6428 15.8276 13.6132C15.7331 13.5837 15.646 13.5345 15.5719 13.4688C15.4979 13.4031 15.4386 13.3225 15.398 13.2322C15.3574 13.1419 15.3364 13.0441 15.3364 12.9451C15.3364 12.8461 15.3574 12.7483 15.398 12.658C15.4386 12.5678 15.4979 12.4871 15.5719 12.4214C15.646 12.3558 15.7331 12.3065 15.8276 12.277C15.922 12.2475 16.0217 12.2383 16.1199 12.2501H22.8299C23.0282 12.2493 23.22 12.3204 23.3699 12.4501Z" fill="#B7182E"/>
<path d="M17 13.66L18.63 16.07H17.26C17.1686 16.0703 17.0788 16.0462 17 16C16.8441 15.9242 16.7125 15.8065 16.62 15.66L14.76 13L16.59 10.31C16.6845 10.1443 16.8276 10.0116 17 9.92997C17.0891 9.88218 17.1889 9.85807 17.29 9.85997H18.68L17 12.27L16.95 12.34L16.53 12.96L16.95 13.58L17 13.66Z" fill="#B7182E"/>
<path d="M23.37 12.4501V13.4501C23.2182 13.5755 23.0268 13.6428 22.83 13.6401H17L18.63 16.0501H17.26C17.1704 16.0566 17.0808 16.0394 17 16.0001V9.86011H18.68L17 12.2701H22.81C23.0125 12.2588 23.212 12.3229 23.37 12.4501Z" fill="#B7182E"/>
</g>
<defs>
<clipPath id="clip0_179_259">
<rect width="25" height="25" fill="white"/>
</clipPath>
</defs>
</svg>
